<mxfile host="app.diagrams.net" modified="2023-06-28T10:15:01.620Z" agent="Mozilla/5.0 (Windows NT 10.0; Win64; x64) AppleWebKit/537.36 (KHTML, like Gecko) Chrome/113.0.0.0 Safari/537.36 OPR/99.0.0.0 (Edition Yx GX)" etag="tOsKCVVv0TI_dgF_ZNvj" version="21.5.0" type="github">
  <diagram name="Страница 1" id="dqpyYiL3AHvUo4Ew4E7N">
    <mxGraphModel dx="1187" dy="674" grid="1" gridSize="10" guides="1" tooltips="1" connect="1" arrows="1" fold="1" page="1" pageScale="1" pageWidth="827" pageHeight="1169" math="0" shadow="0">
      <root>
        <mxCell id="0" />
        <mxCell id="1" parent="0" />
        <mxCell id="uaHkAxCWRKXvCwcy5niA-1" value="" style="html=1;whiteSpace=wrap;" vertex="1" parent="1">
          <mxGeometry x="170" y="70" width="640" height="1120" as="geometry" />
        </mxCell>
        <mxCell id="uaHkAxCWRKXvCwcy5niA-2" value="&lt;font style=&quot;font-size: 20px;&quot;&gt;Юр. лицо&lt;br&gt;&lt;/font&gt;" style="shape=umlActor;verticalLabelPosition=bottom;verticalAlign=top;html=1;" vertex="1" parent="1">
          <mxGeometry x="50" y="810" width="60" height="120" as="geometry" />
        </mxCell>
        <mxCell id="uaHkAxCWRKXvCwcy5niA-3" value="&lt;font style=&quot;font-size: 20px;&quot;&gt;Сайт Озон&lt;/font&gt;" style="shape=umlActor;verticalLabelPosition=bottom;verticalAlign=top;html=1;" vertex="1" parent="1">
          <mxGeometry x="50" y="100" width="60" height="120" as="geometry" />
        </mxCell>
        <mxCell id="uaHkAxCWRKXvCwcy5niA-4" value="&lt;font size=&quot;1&quot; style=&quot;&quot;&gt;&lt;span style=&quot;font-size: 20px;&quot;&gt;Обычный пользователь&lt;/span&gt;&lt;/font&gt;" style="shape=umlActor;verticalLabelPosition=bottom;verticalAlign=top;html=1;whiteSpace=wrap;" vertex="1" parent="1">
          <mxGeometry x="50" y="480" width="60" height="120" as="geometry" />
        </mxCell>
        <mxCell id="uaHkAxCWRKXvCwcy5niA-7" value="&lt;font style=&quot;font-size: 20px;&quot;&gt;Управление доступом к функциям сайта&lt;/font&gt;" style="ellipse;whiteSpace=wrap;html=1;fontSize=20;" vertex="1" parent="1">
          <mxGeometry x="200" y="125" width="270" height="70" as="geometry" />
        </mxCell>
        <mxCell id="uaHkAxCWRKXvCwcy5niA-17" value="" style="endArrow=none;html=1;rounded=0;exitX=0.5;exitY=0.5;exitDx=0;exitDy=0;exitPerimeter=0;entryX=0;entryY=0.5;entryDx=0;entryDy=0;" edge="1" parent="1" source="uaHkAxCWRKXvCwcy5niA-3" target="uaHkAxCWRKXvCwcy5niA-7">
          <mxGeometry width="50" height="50" relative="1" as="geometry">
            <mxPoint x="510" y="350" as="sourcePoint" />
            <mxPoint x="560" y="300" as="targetPoint" />
          </mxGeometry>
        </mxCell>
        <mxCell id="uaHkAxCWRKXvCwcy5niA-19" value="Регистрация пользователей" style="ellipse;whiteSpace=wrap;html=1;fontSize=20;" vertex="1" parent="1">
          <mxGeometry x="520" y="70" width="140" height="70" as="geometry" />
        </mxCell>
        <mxCell id="uaHkAxCWRKXvCwcy5niA-20" value="Настройка прав доступа" style="ellipse;whiteSpace=wrap;html=1;fontSize=17;" vertex="1" parent="1">
          <mxGeometry x="550" y="150" width="140" height="70" as="geometry" />
        </mxCell>
        <mxCell id="uaHkAxCWRKXvCwcy5niA-21" value="&quot;include&quot;" style="endArrow=open;endSize=12;dashed=1;html=1;rounded=0;entryX=0.943;entryY=0.747;entryDx=0;entryDy=0;exitX=0;exitY=0.5;exitDx=0;exitDy=0;entryPerimeter=0;" edge="1" parent="1" source="uaHkAxCWRKXvCwcy5niA-20" target="uaHkAxCWRKXvCwcy5niA-7">
          <mxGeometry width="160" relative="1" as="geometry">
            <mxPoint x="450" y="320" as="sourcePoint" />
            <mxPoint x="610" y="320" as="targetPoint" />
          </mxGeometry>
        </mxCell>
        <mxCell id="uaHkAxCWRKXvCwcy5niA-22" value="&quot;include&quot;" style="endArrow=open;endSize=12;dashed=1;html=1;rounded=0;entryX=0.912;entryY=0.24;entryDx=0;entryDy=0;exitX=0;exitY=0.5;exitDx=0;exitDy=0;entryPerimeter=0;" edge="1" parent="1" source="uaHkAxCWRKXvCwcy5niA-19" target="uaHkAxCWRKXvCwcy5niA-7">
          <mxGeometry width="160" relative="1" as="geometry">
            <mxPoint x="450" y="320" as="sourcePoint" />
            <mxPoint x="610" y="320" as="targetPoint" />
          </mxGeometry>
        </mxCell>
        <mxCell id="uaHkAxCWRKXvCwcy5niA-23" value="Оформление купли-продажи" style="ellipse;whiteSpace=wrap;html=1;fontSize=20;" vertex="1" parent="1">
          <mxGeometry x="260" y="230" width="190" height="70" as="geometry" />
        </mxCell>
        <mxCell id="uaHkAxCWRKXvCwcy5niA-24" value="" style="endArrow=none;html=1;rounded=0;exitX=0.5;exitY=0.5;exitDx=0;exitDy=0;exitPerimeter=0;entryX=0;entryY=0.5;entryDx=0;entryDy=0;" edge="1" parent="1" source="uaHkAxCWRKXvCwcy5niA-3" target="uaHkAxCWRKXvCwcy5niA-23">
          <mxGeometry width="50" height="50" relative="1" as="geometry">
            <mxPoint x="510" y="540" as="sourcePoint" />
            <mxPoint x="560" y="490" as="targetPoint" />
          </mxGeometry>
        </mxCell>
        <mxCell id="uaHkAxCWRKXvCwcy5niA-27" value="Создание и редактирование массовых акций" style="ellipse;whiteSpace=wrap;html=1;fontSize=14;" vertex="1" parent="1">
          <mxGeometry x="260" y="320" width="230" height="70" as="geometry" />
        </mxCell>
        <mxCell id="uaHkAxCWRKXvCwcy5niA-29" value="" style="endArrow=none;html=1;rounded=0;exitX=0.5;exitY=0.5;exitDx=0;exitDy=0;exitPerimeter=0;entryX=0;entryY=0.5;entryDx=0;entryDy=0;" edge="1" parent="1" source="uaHkAxCWRKXvCwcy5niA-3" target="uaHkAxCWRKXvCwcy5niA-27">
          <mxGeometry relative="1" as="geometry">
            <mxPoint x="450" y="320" as="sourcePoint" />
            <mxPoint x="610" y="320" as="targetPoint" />
          </mxGeometry>
        </mxCell>
        <mxCell id="uaHkAxCWRKXvCwcy5niA-31" value="Регистрируется как обычное физ. лицо" style="ellipse;whiteSpace=wrap;html=1;fontSize=14;" vertex="1" parent="1">
          <mxGeometry x="260" y="450" width="290" height="70" as="geometry" />
        </mxCell>
        <mxCell id="uaHkAxCWRKXvCwcy5niA-32" value="Оформление заказа" style="ellipse;whiteSpace=wrap;html=1;fontSize=17;" vertex="1" parent="1">
          <mxGeometry x="260" y="550" width="190" height="70" as="geometry" />
        </mxCell>
        <mxCell id="uaHkAxCWRKXvCwcy5niA-33" value="Анализ скидок на товары" style="ellipse;whiteSpace=wrap;html=1;fontSize=14;" vertex="1" parent="1">
          <mxGeometry x="260" y="650" width="230" height="70" as="geometry" />
        </mxCell>
        <mxCell id="uaHkAxCWRKXvCwcy5niA-34" value="" style="endArrow=none;html=1;rounded=0;exitX=0.5;exitY=0.5;exitDx=0;exitDy=0;exitPerimeter=0;entryX=0;entryY=0.5;entryDx=0;entryDy=0;" edge="1" parent="1" source="uaHkAxCWRKXvCwcy5niA-4" target="uaHkAxCWRKXvCwcy5niA-31">
          <mxGeometry width="50" height="50" relative="1" as="geometry">
            <mxPoint x="510" y="540" as="sourcePoint" />
            <mxPoint x="560" y="490" as="targetPoint" />
          </mxGeometry>
        </mxCell>
        <mxCell id="uaHkAxCWRKXvCwcy5niA-35" value="" style="endArrow=none;html=1;rounded=0;exitX=0.5;exitY=0.5;exitDx=0;exitDy=0;exitPerimeter=0;entryX=0;entryY=0.5;entryDx=0;entryDy=0;" edge="1" parent="1" source="uaHkAxCWRKXvCwcy5niA-4" target="uaHkAxCWRKXvCwcy5niA-32">
          <mxGeometry width="50" height="50" relative="1" as="geometry">
            <mxPoint x="510" y="540" as="sourcePoint" />
            <mxPoint x="560" y="490" as="targetPoint" />
          </mxGeometry>
        </mxCell>
        <mxCell id="uaHkAxCWRKXvCwcy5niA-36" value="" style="endArrow=none;html=1;rounded=0;exitX=0.5;exitY=0.5;exitDx=0;exitDy=0;exitPerimeter=0;entryX=0;entryY=0.5;entryDx=0;entryDy=0;" edge="1" parent="1" source="uaHkAxCWRKXvCwcy5niA-4" target="uaHkAxCWRKXvCwcy5niA-33">
          <mxGeometry width="50" height="50" relative="1" as="geometry">
            <mxPoint x="510" y="540" as="sourcePoint" />
            <mxPoint x="560" y="490" as="targetPoint" />
          </mxGeometry>
        </mxCell>
        <mxCell id="uaHkAxCWRKXvCwcy5niA-38" value="Регистрируется как юр. лицо" style="ellipse;whiteSpace=wrap;html=1;fontSize=17;" vertex="1" parent="1">
          <mxGeometry x="260" y="770" width="270" height="70" as="geometry" />
        </mxCell>
        <mxCell id="uaHkAxCWRKXvCwcy5niA-39" value="Покупает оптом и в розницу" style="ellipse;whiteSpace=wrap;html=1;fontSize=17;" vertex="1" parent="1">
          <mxGeometry x="260" y="870" width="270" height="70" as="geometry" />
        </mxCell>
        <mxCell id="uaHkAxCWRKXvCwcy5niA-41" value="Выставляет товары на продажу" style="ellipse;whiteSpace=wrap;html=1;fontSize=16;" vertex="1" parent="1">
          <mxGeometry x="260" y="970" width="280" height="70" as="geometry" />
        </mxCell>
        <mxCell id="uaHkAxCWRKXvCwcy5niA-42" value="" style="endArrow=none;html=1;rounded=0;entryX=0;entryY=0.5;entryDx=0;entryDy=0;" edge="1" parent="1" target="uaHkAxCWRKXvCwcy5niA-38">
          <mxGeometry width="50" height="50" relative="1" as="geometry">
            <mxPoint x="80" y="870" as="sourcePoint" />
            <mxPoint x="560" y="810" as="targetPoint" />
          </mxGeometry>
        </mxCell>
        <mxCell id="uaHkAxCWRKXvCwcy5niA-43" value="" style="endArrow=none;html=1;rounded=0;exitX=0.5;exitY=0.5;exitDx=0;exitDy=0;exitPerimeter=0;entryX=0;entryY=0.5;entryDx=0;entryDy=0;" edge="1" parent="1" source="uaHkAxCWRKXvCwcy5niA-2" target="uaHkAxCWRKXvCwcy5niA-39">
          <mxGeometry width="50" height="50" relative="1" as="geometry">
            <mxPoint x="510" y="860" as="sourcePoint" />
            <mxPoint x="560" y="810" as="targetPoint" />
          </mxGeometry>
        </mxCell>
        <mxCell id="uaHkAxCWRKXvCwcy5niA-44" value="" style="endArrow=none;html=1;rounded=0;exitX=0.5;exitY=0.5;exitDx=0;exitDy=0;exitPerimeter=0;entryX=0;entryY=0.5;entryDx=0;entryDy=0;" edge="1" parent="1" source="uaHkAxCWRKXvCwcy5niA-2" target="uaHkAxCWRKXvCwcy5niA-41">
          <mxGeometry width="50" height="50" relative="1" as="geometry">
            <mxPoint x="510" y="860" as="sourcePoint" />
            <mxPoint x="560" y="810" as="targetPoint" />
          </mxGeometry>
        </mxCell>
      </root>
    </mxGraphModel>
  </diagram>
</mxfile>
